# xmcd CD database file
#
# Track frame offsets:
#	150
#	33397
#	59860
#	89040
#	115150
#	140525
#	171705
#	204027
#
# Disc length: 3029 seconds
#
# Revision: 0
# Processed by: cddbd v1.4PL0 Copyright (c) Steve Scherf et al.
# Submitted via: CDex 1.50beta9
#
DISCID=790bd308
DTITLE=Thomas Huber Jazz Connection - Pep Talk
DYEAR=1900
DGENRE=Jazz
TTITLE0=Strange Excuse
TTITLE1=The Squaring Of The Circle
TTITLE2=Squash At Two
TTITLE3=I Knew
TTITLE4=NDUGU's Dream
TTITLE5=Pep Talk
TTITLE6=Flamba
TTITLE7=Celebration
EXTD=
EXTT0=
EXTT1=
EXTT2=
EXTT3=
EXTT4=
EXTT5=
EXTT6=
EXTT7=
PLAYORDER=
